<?xml version="1.0" ?><svg data-name="Layer 3" id="Layer_3" viewBox="0 0 340 340" xmlns="http://www.w3.org/2000/svg"><defs><style>.cls-1{fill:#000;}.cls-2{fill:none;}</style></defs><title/><path class="cls-1" d="M312.52,197.98c1.14-23.79,2.61-50.92,9.69-68.88995,3.23-7.56-3.22-16.7-11.42-16.18006-21.82.59-24.86,17.78-29.92,34.96-4.77574-31.96245-3.14537-64.6269-4.29-95.03-6.54-11.48-24.63-10.58-29.33,1.97-1.27,10.08-1.47,20.58-1.89,31.75-1.11-17.01-1.76-33.81-1.95-50.57a3.4727,3.4727,0,0,0-.62-1.95c-9.10253-11.8953-27.91837-1.9335-29.57965,11.82015C212.59,52.21,212.18,58.74,211.89,65.6c.26731-19.96145-24.62376-19.33647-28.41986-1.41968C183.04,70.02,183.01,75.97,182.91,82.15c-5.39-1.7-9.51.69-12.91,5.19-3.4-4.5-7.52-6.89-12.91-5.19-.1-6.18-.13-12.13-.56-17.97-3.80125-17.92563-28.6921-18.5315-28.42,1.42-.29-6.86-.7-13.39-1.32-19.74-1.66045-13.75243-20.48054-23.7161-29.58034-11.81994A3.474,3.474,0,0,0,96.59,35.99c-.19,16.76-.84,33.56-1.95,50.57-.42-11.17-.62-21.67-1.89-31.75-3.97-10.61-17.52-12.89-25.57-6.4-2.63918-5.54616-11.18563-3.58318-11.15992,2.58023A9.26307,9.26307,0,0,1,46.83,60.93c-5.42826-.54807-8.82272,6.03474-5.01978,9.96017A6.21418,6.21418,0,0,0,46.83,72.71991,9.20569,9.20569,0,0,1,56.02,81.92a6.004,6.004,0,0,0,6.78,6.56c-.61991,19.418-.37367,39.65117-3.67,59.39-5.06-17.18-8.1-34.37-29.92-34.96-8.2-.52-14.65,8.62006-11.42,16.18006,7.08,17.97,8.55,45.1,9.69,68.89,4.87,22.75,17.08,39.87,35.45,49.45v77.32a3.5,3.5,0,1,0,7,0V250.61a80.02476,80.02476,0,0,0,42.47,3.87,3.50177,3.50177,0,1,0-1.2-6.9c-31.6,5.49-67.56-8.09-76.82-50.77-1.02-24.19-2.74-51.51-10.07-70.26a4.91491,4.91491,0,0,1,4.66-6.64c6.88.23,11.89,2.53,14.91,6.83,8.08,12.22,7.83,34.25,20.34,44.34a3.5813,3.5813,0,0,0,2.05.78c21.366.7175,34.4709,14.8306,47.0999,31.37016,2.84073,3.57406,8.30658-.56921,5.54-4.28027C116.77,196.18,115.11,194.09,113.53,192.17,102.55,178.84,89.41,166.35,67.82,164.93a21.03441,21.03441,0,0,1-3.83-4.98c5.44-27.74,6.03-56.41,6.02-83.99a9.35892,9.35892,0,0,1,7.74-3.24A5.89577,5.89577,0,1,0,77.61,60.93a9.33371,9.33371,0,0,1-7.66-3.29v-2c4.48-5.91,13.31-4.89,16.09,1.26,2.25995,25.87,2.28,55.65.65,90.15a3.51561,3.51561,0,0,0,2.81,3.03c17.58,2.44,32.99,6.43,49.23,11.55a3.50221,3.50221,0,0,0,1.15-6.81c-3.94-1.36-7.97-2.63-12.04-3.79,4.78-27.47,6.17-55.94,7.36-87.51a6.21511,6.21511,0,0,1,3-5.1c4.59-2.66,9.88,1.17,11.43,7.02,1.43319,26.67539-.38777,64.053-3.80015,96.27994a3.49816,3.49816,0,1,0,6.96019.71c2.2-23.42,5.58-49.8,5.17-71.38,1.13464-5.9587,7.72377.18722,8.54,4.48V209.70367a12.55,12.55,0,0,1-9.1142-12.75595c-.16663-8.734-12.7503-8.82978-13.02108-.16969a12.59357,12.59357,0,0,1-13.22565,13.39473c-8.73673.16667-8.8284,12.75111-.17012,13.02111a12.54963,12.54963,0,0,1,13.39576,12.45854,6.56935,6.56935,0,1,0,13.02085-.00016A12.47144,12.47144,0,0,1,166.5,223.663c.37262,14.05292-.06881,23.55231-10.68,34.577-3.12-.09-7.84-1.62-8.43,2.83-.1,3.86,3.36,3.9,6.28,4.02v59.34a3.5,3.5,0,0,0,7,0V263.28A46.2037,46.2037,0,0,0,170,249.7a46.20392,46.20392,0,0,0,9.33,13.58v61.15a3.5,3.5,0,0,0,7,0V265.09c2.92-.12006,6.38-.16,6.28-4.02-.59-4.45-5.31-2.92-8.43-2.83-11.0036-11.39655-10.99012-21.2001-10.68-35.65063,4.98111-2.05886,4.94816-9.73906,0-11.77265V95.53c.34944-3.45338,7.324-10.77967,8.54029-4.48C181.63,112.63,185.01,139.01,187.21,162.43a3.49807,3.49807,0,1,0,6.96-.71c-3.34323-33.07134-5.24172-65.33411-3.8-96.28,1.55-5.85,6.84-9.68,11.43-7.02a6.21482,6.21482,0,0,1,3,5.1c1.19,31.57,2.58,60.04,7.36,87.51-4.07,1.16-8.1,2.43-12.04,3.79a3.50222,3.50222,0,0,0,1.15,6.81c16.24-5.12,31.65-9.11,49.23-11.55a3.51547,3.51547,0,0,0,2.81-3.03c-1.63-34.5-1.61-64.28.65-90.15,2.78-6.15,11.61-7.17,16.09-1.26-.07,33.6-.83,69.68,5.96,104.31a21.03128,21.03128,0,0,1-3.83,4.98c-21.59,1.42-34.73,13.91-45.71,27.24-1.58,1.92005-3.24,4.01-5.38,6.78-2.735,3.66672,2.64641,7.88724,5.54008,4.27983,12.63121-16.54093,25.73211-30.65116,47.1-31.36968A3.58281,3.58281,0,0,0,275.78,171.08c12.51-10.09,12.26-32.12,20.34-44.34,3.02-4.3,8.03-6.6,14.91-6.83a4.9149,4.9149,0,0,1,4.66,6.64c-7.33,18.75-9.05,46.07-10.07,70.26-9.26,42.68-45.22,56.26-76.82,50.77a3.50176,3.50176,0,1,0-1.2,6.9,80.02449,80.02449,0,0,0,42.47-3.87v74.14c.07446,4.594,6.92294,4.60747,7-.00015v-39.548a8.91434,8.91434,0,0,1,9.736,9.34126c.15447,7.77368,11.382,7.84757,11.61779.13006a8.81106,8.81106,0,0,1,8.73782-9.45682c8.56889.47336,8.64949-12.002-.00024-11.6172a8.79253,8.79253,0,0,1-8.73756-9.32622c-.15223-7.77287-11.38256-7.8463-11.61774-.13016a8.93661,8.93661,0,0,1-9.73612,9.47589V247.43C295.44,237.85,307.65,220.73,312.52,197.98ZM69.98,66.32a11.6552,11.6552,0,0,0,1.14.51,16.28966,16.28966,0,0,0-9.2,9.2,16.28146,16.28146,0,0,0-9.21-9.2,16.29863,16.29863,0,0,0,9.21-9.21A16.27833,16.27833,0,0,0,69.98,66.32ZM118.61,148.57c-7.1-1.74-14.46-3.23-22.3-4.5a991.47322,991.47322,0,0,0,7.27-106.76c5.51-4.34,14.87,1.09,16.29,9.62C122.42,74.62,122.02,107.01,118.61,148.57Zm32.265,82.73517a19.52183,19.52183,0,0,0-14.62158-14.62159A19.52241,19.52241,0,0,0,150.875,202.06152a19.523,19.523,0,0,0,14.62207,14.62207A19.52243,19.52243,0,0,0,150.875,231.30518ZM221.39,148.57c-3.41-41.56-3.81-73.95-1.26-101.64,1.42-8.53,10.78-13.96,16.29-9.62a991.45742,991.45742,0,0,0,7.27,106.76C235.85,145.34,228.49,146.83,221.39,148.57Zm71.22474,122.29767a15.83076,15.83076,0,0,0,8.54,8.54,15.83081,15.83081,0,0,0-8.54,8.54,15.82841,15.82841,0,0,0-8.53955-8.54A15.82836,15.82836,0,0,0,292.61475,270.86768Z"/><path class="cls-1" d="M276.11719,35.93115a7.14239,7.14239,0,0,1,7.69821,7.0772c-.47364,5.02339,5.65023,8.128,9.27845,4.6072a5.7418,5.7418,0,0,0,1.71225-4.60726,7.08526,7.08526,0,0,1,7.0772-7.07714,5.7424,5.7424,0,0,0,4.60839-1.71342c3.51269-3.62619.42178-9.752-4.60855-9.27717a7.08534,7.08534,0,0,1-7.077-7.07728,5.52684,5.52684,0,1,0-10.99059.00008,7.08535,7.08535,0,0,1-7.07728,7.07707C269.07509,24.541,268.487,35.62293,276.11719,35.93115ZM289.311,24.19238a14.1718,14.1718,0,0,0,6.24316,6.24317A14.17529,14.17529,0,0,0,289.311,36.6792a14.17893,14.17893,0,0,0-6.24366-6.24365A14.17544,14.17544,0,0,0,289.311,24.19238Z"/><rect class="cls-2" height="340" width="340"/></svg>